<svg width="72" height="72" viewBox="0 0 72 72" fill="none" xmlns="http://www.w3.org/2000/svg">
<path d="M32.4998 46.949L32.5 47.0532H32.4941C31.4977 47.0514 29.0254 46.1638 26.3844 44.5617C24.1302 43.1943 21.753 41.3064 20.0657 39.0046C17.4248 35.4022 16.7362 30.0575 19 27.9825C21.2638 25.9075 26.0564 27.2194 28.348 30.9731C30.3013 34.1726 31.3518 37.66 31.907 40.6822C32.3824 43.2697 32.4947 45.5162 32.4998 46.949Z" fill="#34364C"/>
<path d="M53.9344 39.0046C52.2471 41.3064 49.8699 43.1943 47.6157 44.5617C44.9747 46.1638 42.5024 47.0514 41.506 47.0532H41.5L41.5002 46.949C41.5053 45.5162 41.6177 43.2697 42.0931 40.6822C42.6483 37.66 43.6987 34.1726 45.652 30.9731C47.9437 27.2194 52.7362 25.9075 55 27.9825C57.2638 30.0575 56.5752 35.4022 53.9344 39.0046Z" fill="#34364C"/>
<path fill-rule="evenodd" clip-rule="evenodd" d="M34 2C31.0355 2 28.5611 4.15343 28.0833 7H28C24.6863 7 22 9.68629 22 13V13.0856C17.8264 12.6972 13.4566 13.7259 9.65892 16.8907C0.211658 24.7634 1.35695 40.7571 11.9986 49.3247C13.4929 50.5277 14.7133 51.5463 15.6932 52.4896L15.2164 52.5541C12.2406 52.9566 10.0206 55.4971 10.0206 58.5V66C10.0206 69.3137 12.7069 72 16.0206 72H57.9795C61.2932 72 63.9795 69.3137 63.9795 66V58.5C63.9795 55.4971 61.7595 52.9566 58.7837 52.5541L58.3069 52.4897C59.2867 51.5463 60.5072 50.5277 62.0014 49.3247C72.6431 40.7571 73.7884 24.7634 64.3411 16.8907C60.5435 13.7259 56.1737 12.6972 52 13.0856V13C52 9.68629 49.3137 7 46 7H45.9168C45.439 4.15343 42.9645 2 40 2H34ZM51.9988 19.1228C54.9725 18.7089 57.9319 19.3598 60.5 21.5C66.5 26.5 66.5 38 58.2388 44.6512C55.4823 46.8704 52.8952 49.0426 51.2764 51.5388C50.7341 52.3751 50.3005 53.2477 50.0057 54.1706C49.6864 55.1699 49.5298 56.2282 49.5739 57.3632L57.9795 58.5V66H16.0206V58.5L24.4262 57.3632C24.4703 56.2282 24.3137 55.1699 23.9944 54.1706C23.6995 53.2477 23.2659 52.375 22.7236 51.5388C21.1049 49.0426 18.5178 46.8704 15.7613 44.6512C7.50002 38 7.50002 26.5 13.5 21.5C16.0682 19.3599 19.0276 18.7089 22.0013 19.1228C23.8827 19.3847 25.7699 20.0729 27.5672 21.0798C27.7121 21.1609 27.8564 21.2442 28 21.3294C29.6582 22.3134 31.232 23.5658 32.6446 25C32.7787 25.1362 32.9114 25.2741 33.0426 25.4135C33.1589 25.5372 33.2719 25.6638 33.3815 25.793L33.6563 19H28V13H33.8438L34 8H40L40.1563 13H46V19H40.3438L40.6186 25.793C40.7282 25.6638 40.8411 25.5372 40.9575 25.4135C41.0886 25.2741 41.2213 25.1362 41.3555 25C42.7681 23.5658 44.3419 22.3134 46 21.3294C46.1437 21.2442 46.2879 21.1609 46.4328 21.0798C48.2302 20.0729 50.1173 19.3847 51.9988 19.1228Z" fill="#34364C"/>
</svg>
